<svg xmlns="http://www.w3.org/2000/svg" xmlns:xlink="http://www.w3.org/1999/xlink" version="1.1" style="" xml:space="preserve" width="100" height="125"><rect id="backgroundrect" width="100%" height="100%" x="0" y="0" fill="none" stroke="none"/><g class="currentLayer" style=""><title>Layer 1</title><g id="svg_1" class="" fill="#ffffff" fill-opacity="1"><path d="M92.7,37.09775273799896 C92.7,37.09775273799896 92.7,37.09775273799896 92.7,37.09775273799896 C92.7,37.09775273799896 92.7,37.09775273799896 92.7,37.09775273799896 c0,-4.9 -1.9,-9.5 -5.3,-12.9 c0,0 0,0 0,0 c0,0 0,0 0,0 c0,0 0,0 0,0 C84,20.797752737998962 79.4,18.797752737998962 74.5,18.797752737998962 c0,0 -0.1,0 -0.1,0 c0,0 0,0 0,0 c0,0 0,0 -0.1,0 c0,0 0,0 0,0 c-4.8,0 -9.4,1.9 -12.8,5.3 c-0.5,0.5 -0.5,1.3 0,1.8 l3.1,3.1 H42.1 h-3.7 l-0.2,-3.5 c-0.2,-2.9 -2.3,-5.4 -5.2,-5.9 L5.1,13.697752737998963 c-0.7000000000000006,-0.1 -1.3,0.3000000000000003 -1.5,1 L2.8,18.597752737998963 c-0.1,0.7000000000000006 0.3000000000000003,1.3 1,1.5 l27.3,5.6 c0.3000000000000003,0.1 0.6000000000000006,0.3000000000000003 0.6000000000000006,0.7000000000000006 l0.2,2.6 H19.1 c-0.1,0 -0.2,0 -0.3000000000000003,0 c0,0 0,0 0,0 c-0.1,0 -0.2,0 -0.2,0.1 c0,0 -0.1,0 -0.1,0 c-0.1,0 -0.1,0.1 -0.2,0.1 c0,0 -0.1,0 -0.1,0.1 c0,0 -0.1,0.1 -0.1,0.1 c0,0 0,0 0,0 c0,0 0,0.1 -0.1,0.1 c0,0 -0.1,0.1 -0.1,0.1 c0,0 0,0.1 -0.1,0.1 c0,0 -0.1,0.1 -0.1,0.2 c0,0 0,0.1 0,0.1 c0,0.1 0,0.1 0,0.2 c0,0 0,0.1 0,0.1 c0,0 0,0.1 0,0.1 c0,0 0,0 0,0.1 c0,0 0,0 0,0.1 l6.1,74.7 c0.2,2.6 2.4,4.6 5,4.6 h42.7 c2.6,0 4.8,-2 5,-4.6 l4.9,-59.4 l4.1,4.2 c0.2,0.2 0.5,0.4 0.9,0.4 c0,0 0,0 0,0 c0.3000000000000003,0 0.6000000000000006,-0.1 0.9,-0.4 C90.7,46.59775273799896 92.6,42.09775273799896 92.7,37.09775273799896 C92.7,37.19775273799896 92.7,37.09775273799896 92.7,37.09775273799896 zM78.6,43.09775273799896 l-5.1,62 c-0.1,1 -1,1.8 -2,1.8 H28.8 c-1,0 -1.9,-0.8 -2,-1.8 l-6,-73.1 H32 l1.1,15.6 h-7.9 c-0.3000000000000003,0 -0.5,0.1 -0.7000000000000006,0.3000000000000003 s-0.3000000000000003,0.5 -0.3000000000000003,0.8 l4.5,55.2 c0,0.5 0.5,0.9 1,0.9 h40.7 c0.5,0 1,-0.4 1,-0.9 L76,48.69775273799897 c0,-0.3000000000000003 -0.1,-0.6000000000000006 -0.3000000000000003,-0.8 s-0.5,-0.3000000000000003 -0.7000000000000006,-0.3000000000000003 H39.6 l-1.1,-15.6 h3.5 h25.5 h3.5 h2.1 h2.5 h2.2 h1.7000000000000002 l-0.2,2 L79.2,35.79775273799896 L79,38.29775273799896 L78.8,39.79775273799896 L78.6,43.09775273799896 zM34.1,26.19775273799896 C34,24.797752737998962 33,23.597752737998963 31.6,23.297752737998962 l-26,-5.4 l0.3000000000000003,-1.5 l26.5,5.5 c1.8,0.4 3.1,1.9 3.2,3.7 l0.2,3.4 h-1.5 L34.1,26.19775273799896 zM37.1,47.59775273799896 h-1.5 l-1.1,-15.6 H36 L37.1,47.59775273799896 zM40.8,64.19775273799897 c0.4,-0.1 0.8,-0.1 1.2,0.1 c0.5,0.2 1,0.6000000000000006 1.2,1.1 l4.4,9.5 c0.5,1.1 0,2.4 -1.1,2.9 c0,0 0,0 0,0 l-4.6,2.1 l-1.2,0.6000000000000006 l-1.2,0.6000000000000006 L38,81.69775273799897 l-1,0.5 c-0.1,0 -0.1,0 -0.2,0.1 c-0.2,0.1 -0.5,0.1 -0.7000000000000006,0.1 c-0.2,0 -0.4,0 -0.5,-0.1 c-0.6000000000000006,-0.2 -1.2,-0.6000000000000006 -1.4,-1.2 l-4.4,-9.5 c-0.5,-1.1 0,-2.4 1.1,-2.9 l3.7,-1.7000000000000002 l1.2,-0.6000000000000006 l1.2,-0.6000000000000006 l1.5,-0.7000000000000006 l1.2,-0.6000000000000006 l0.8,-0.3000000000000003 C40.5,64.19775273799897 40.6,64.19775273799897 40.8,64.19775273799897 zM43.4,57.79775273799896 c0,-0.6000000000000006 0.5,-1.2 1.2,-1.2 s1.2,0.5 1.2,1.2 s-0.5,1.2 -1.2,1.2 S43.4,58.397752737998964 43.4,57.79775273799896 zM47.4,84.99775273799897 c0,0.6000000000000006 -0.5,1.2 -1.2,1.2 S45,85.69775273799897 45,84.99775273799897 c0,-0.6000000000000006 0.5,-1.2 1.2,-1.2 S47.4,84.39775273799896 47.4,84.99775273799897 zM43.3,99.29775273799896 c-0.2,0.4 -0.6000000000000006,0.7000000000000006 -1,0.7000000000000006 c-0.1,0 -0.1,0 -0.2,0 c-0.6000000000000006,-0.1 -1,-0.5 -1,-1.1 c0,-0.5 0.4,-1 0.8,-1.1 c0.1,0 0.2,-0.1 0.3000000000000003,-0.1 c0.4,0 0.7000000000000006,0.2 1,0.5 c0.1,0.2 0.2,0.4 0.2,0.6000000000000006 C43.4,98.99775273799897 43.3,99.19775273799897 43.3,99.29775273799896 zM35.7,91.09775273799896 c0,0.6000000000000006 -0.5,1.2 -1.2,1.2 s-1.2,-0.5 -1.2,-1.2 s0.5,-1.2 1.2,-1.2 S35.7,90.39775273799896 35.7,91.09775273799896 zM34.5,61.397752737998964 c0,0.3000000000000003 -0.1,0.6000000000000006 -0.3000000000000003,0.8 c-0.2,0.2 -0.5,0.3000000000000003 -0.8,0.3000000000000003 c-0.6000000000000006,0 -1.2,-0.5 -1.2,-1.2 s0.5,-1.2 1.2,-1.2 c0.3000000000000003,0 0.5,0.1 0.7000000000000006,0.3000000000000003 C34.3,60.69775273799897 34.5,60.997752737998965 34.5,61.397752737998964 zM32.2,52.79775273799896 c-0.6000000000000006,0 -1.2,-0.5 -1.2,-1.2 s0.5,-1.2 1.2,-1.2 s1.2,0.5 1.2,1.2 S32.8,52.79775273799896 32.2,52.79775273799896 zM56.5,84.69775273799897 L66.8,86.79775273799896 c1.2,0.2 1.9,1.4 1.7000000000000002,2.5 l-2.1,10.3 c-0.2,1 -1.1,1.7000000000000002 -2.1,1.7000000000000002 c-0.1,0 -0.3000000000000003,0 -0.4,0 c0,0 0,0 0,0 l-10.3,-2.1 c-0.6000000000000006,-0.1 -1,-0.4 -1.4,-0.9 c-0.3000000000000003,-0.5 -0.4,-1.1 -0.3000000000000003,-1.6 L54,86.39775273799896 C54.2,85.19775273799897 55.4,84.49775273799897 56.5,84.69775273799897 zM55.9,76.19775273799897 c0,-0.6000000000000006 0.5,-1.2 1.2,-1.2 s1.2,0.5 1.2,1.2 c0,0.6000000000000006 -0.5,1.2 -1.2,1.2 S55.9,76.79775273799896 55.9,76.19775273799897 zM65.6,81.89775273799896 c0,-0.6000000000000006 0.5,-1.2 1.2,-1.2 s1.2,0.5 1.2,1.2 s-0.5,1.2 -1.2,1.2 S65.6,82.49775273799897 65.6,81.89775273799896 zM67.9,72.89775273799896 c0,-0.6000000000000006 0.5,-1.2 1.2,-1.2 s1.2,0.5 1.2,1.2 s-0.5,1.2 -1.2,1.2 S67.9,73.49775273799897 67.9,72.89775273799896 zM67.8,59.29775273799896 l-3.2,10 c-0.3000000000000003,0.9 -1.1,1.5 -2,1.5 c-0.2,0 -0.4,0 -0.7000000000000006,-0.1 l-10,-3.2 c-1.1,-0.4 -1.7000000000000002,-1.6 -1.4,-2.7 l3.2,-10 c0.2,-0.5 0.6000000000000006,-1 1.1,-1.3 c0.5,-0.3000000000000003 1.1,-0.3000000000000003 1.6,-0.1 l10,3.2 C67.6,56.897752737998964 68.2,58.09775273799896 67.8,59.29775273799896 zM70.3,53.29775273799896 c0,-0.6000000000000006 0.5,-1.2 1.2,-1.2 s1.2,0.5 1.2,1.2 s-0.5,1.2 -1.2,1.2 S70.3,53.897752737998964 70.3,53.29775273799896 zM82.6,30.69775273799896 l3.9,-3.8 c2.1,2.5 3.4,5.6 3.7,8.9 l-7.9,0 L82.6,30.69775273799896 zM80.8,28.897752737998964 h-5.2 l0,-7.6 c3.3,0.3000000000000003 6.5,1.6 9,3.8 L80.8,28.897752737998964 zM64.2,24.99775273799896 c2.5,-2.2 5.7,-3.4 9,-3.7 l0,7.6 h-5.1 L64.2,24.99775273799896 zM86.3,47.397752737998964 l-4.7,-4.8 l0.4,-4.3 l8.1,0 C89.8,41.69775273799897 88.5,44.79775273799896 86.3,47.397752737998964 z" id="svg_2" fill="#ffffff" fill-opacity="1"/><path d="M90.6,20.99775273799896 c-8.9,-9 -23.3,-9 -32.3,-0.2 c-0.7000000000000006,0.7000000000000006 -0.7000000000000006,1.8 0,2.4 c0.7000000000000006,0.7000000000000006 1.8,0.7000000000000006 2.4,0 C68.3,15.797752737998962 80.7,15.797752737998962 88.2,23.397752737998964 c7.5,7.6 7.5,19.9 -0.2,27.4 c-0.7000000000000006,0.7000000000000006 -0.7000000000000006,1.8 0,2.4 c0.3000000000000003,0.3000000000000003 0.8,0.5 1.2,0.5 c0.4,0 0.9,-0.2 1.2,-0.5 C99.4,44.497752737998965 99.5,29.99775273799896 90.6,20.99775273799896 z" id="svg_3" fill="#ffffff" fill-opacity="1"/><path d="M53.9,97.19775273799897 C53.9,97.19775273799897 53.9,97.19775273799897 53.9,97.19775273799897 l10.4,2.2 c0.1,0 0.2,0 0.2,-0.1 l2.1,-10.3 c0,-0.1 0,-0.2 -0.1,-0.2 l-10.3,-2.1 c-0.1,0 -0.2,0 -0.2,0.1 l-2.1,10.3 C53.8,97.09775273799896 53.8,97.19775273799897 53.9,97.19775273799897 z" id="svg_4" fill="#ffffff" fill-opacity="1"/><path d="M37.1,67.99775273799897 l-1.2,0.6000000000000006 l-1.2,0.6000000000000006 l-3,1.4 c-0.1,0 -0.1,0.1 -0.1,0.2 l3.8,8.2 l0.6000000000000006,1.4 c0,0.1 0.1,0.1 0.2,0.1 l0.5,-0.2 l1.2,-0.6000000000000006 l1.5,-0.7000000000000006 l1.2,-0.6000000000000006 l1.2,-0.6000000000000006 l3.9,-1.8 c0.1,0 0.1,-0.1 0.1,-0.2 l-4.4,-9.5 c0,-0.1 -0.1,-0.1 -0.1,-0.1 c0,0 0,0 -0.1,0 l-0.2,0.1 L39.7,66.79775273799896 l-1.2,0.6000000000000006 L37.1,67.99775273799897 z" id="svg_5" fill="#ffffff" fill-opacity="1"/><path d="M65.8,58.497752737998965 l-10,-3.2 c-0.1,0 -0.2,0 -0.2,0.1 l-3.2,10 c0,0.1 0,0.2 0.1,0.2 l10,3.2 c0.1,0 0.2,0 0.2,-0.1 l3.2,-10 C66,58.59775273799896 65.9,58.497752737998965 65.8,58.497752737998965 z" id="svg_6" fill="#ffffff" fill-opacity="1"/></g></g></svg>